# xmcd CD database file
#
# Track frame offsets:
#	150
#	13219
#	29245
#	41890
#	56434
#	70134
#	84730
#	99042
#	113513
#	126546
#	140640
#	153408
#
# Disc length: 2256 seconds
#
# Revision: 0
# Processed by: cddbd v1.5.2PL0 Copyright (c) Steve Scherf et al.
# Submitted via: CDex 1.51
#
DISCID=a808ce0c
DTITLE=Davis, Jordan - Home State
DYEAR=2018
DGENRE=Country
TTITLE0=Take It From Me
TTITLE1=Going 'Round
TTITLE2=More Than I Know
TTITLE3=Slow Dance In A Parking Lot
TTITLE4=Singles You Up
TTITLE5=Sundowners
TTITLE6=Tough To Tie Down
TTITLE7=Selfish
TTITLE8=Made That Way
TTITLE9=So Do I
TTITLE10=Dreamed You Did
TTITLE11=Leaving New Orleans
EXTD=YEAR: 2018
EXTT0=
EXTT1=
EXTT2=
EXTT3=
EXTT4=
EXTT5=
EXTT6=
EXTT7=
EXTT8=
EXTT9=
EXTT10=
EXTT11=
PLAYORDER=
